<svg xmlns="http://www.w3.org/2000/svg" width="512" height="512" viewBox="0 0 512 512">
  <rect width="512" height="512" fill="#0b0e17"/>
  <g transform="translate(256 256) scale(6.2) translate(-24 -24)">
    <path d="M12 8h16l8 8v24a2 2 0 0 1-2 2H12a2 2 0 0 1-2-2V10a2 2 0 0 1 2-2Z" fill="#F1F2FF" fill-opacity="0.06"/>
    <path d="M12 8h16l8 8v24a2 2 0 0 1-2 2H12a2 2 0 0 1-2-2V10a2 2 0 0 1 2-2Z" stroke="#FFD60A" stroke-width="2.5" stroke-linejoin="round"/>
    <path d="M28 8v6a2 2 0 0 0 2 2h6" stroke="#FFD60A" stroke-width="2.5" stroke-linejoin="round" stroke-linecap="round"/>
    <line x1="15" y1="26" x2="28" y2="26" stroke="#FFD60A" stroke-width="2.5" stroke-linecap="round"/>
    <line x1="15" y1="32" x2="24" y2="32" stroke="#FFD60A" stroke-width="2.5" stroke-linecap="round" opacity="0.65"/>
  </g>
</svg>
